<svg width="128" height="128" viewBox="0 0 128 128" fill="none" xmlns="http://www.w3.org/2000/svg">
<rect width="128" height="128" rx="24" fill="white"/>
<path fill-rule="evenodd" clip-rule="evenodd" d="M68.5652 26.0683H78.3805V30.1367H83.8587V34.2052H89.5652V38.2736H95.2717V42.5812H100.978V50.7179H106V66.9915H100.978V75.3675H95.2717V79.4358H89.5652V83.5044H83.8587V87.5727H78.3805V91.641H68.5652V95.7094H48.9348L35.4675 106H22V22H68.5652V26.0683ZM29.5325 54.7862L53.2254 54.8441V50.833H49.2192V46.822H45.213V38.8H53.2254V42.8109H57.2316V46.822H61.2376V50.833H65.2438V54.8441H69.25V62.8659H65.2438V66.877H61.2376V70.888H57.2316V74.8991H53.2254V78.91H45.213V70.888H49.2192V66.877H53.2254V62.8659L29.5325 62.9231V87.5727H64.4565V83.5044H70.163V79.4358H75.6413V75.3675H81.3478V66.9915H86.5978V50.7179H81.3478V42.5812H75.6413V38.2736H70.163V34.2052H64.4565V30.1367H29.5325V54.7862Z" fill="#0004FF"/>
</svg>
